<?xml version="1.0" standalone="no"?>
<!DOCTYPE svg PUBLIC "-//W3C//DTD SVG 20010904//EN"
 "http://www.w3.org/TR/2001/REC-SVG-20010904/DTD/svg10.dtd">
<svg version="1.0" xmlns="http://www.w3.org/2000/svg"
 width="360.000000pt" height="360.000000pt" viewBox="0 0 360.000000 360.000000"
 preserveAspectRatio="xMidYMid meet">
<metadata>
Created by potrace 1.14, written by Peter Selinger 2001-2017
</metadata>
<g transform="translate(0.000000,360.000000) scale(0.100000,-0.100000)"
fill="#000000" stroke="none">
<path d="M285 3128 c-3 -13 -4 -549 -3 -1193 l3 -1170 278 -3 277 -2 0 -159
c0 -121 3 -161 14 -170 10 -8 274 -10 982 -9 l969 3 3 700 2 699 269 271 c357
359 352 339 143 548 -115 114 -133 129 -170 134 -65 9 -90 -3 -168 -79 l-73
-71 -3 89 -3 89 -277 3 -278 2 -2 168 -3 167 -977 3 -978 2 -5 -22z m1905 -43
c0 -3 0 -66 0 -140 l0 -135 -669 0 c-730 0 -681 4 -681 -55 0 -23 -2 -23 -115
-27 -165 -4 -160 2 -160 -224 l0 -176 28 -24 c26 -22 36 -24 138 -24 l109 0 0
-55 0 -55 -94 0 c-176 0 -186 -13 -186 -230 0 -157 9 -200 45 -214 9 -3 66 -6
126 -6 l109 0 0 -75 0 -75 -109 0 c-60 0 -117 -3 -126 -6 -36 -14 -45 -57 -45
-214 0 -217 10 -230 186 -230 l94 0 0 -150 0 -149 -250 -3 -250 -3 0 1140 0
1140 925 -2 c509 -2 925 -5 925 -8z m568 -420 l3 -89 -535 -536 -535 -535 -47
-135 c-26 -74 -49 -137 -51 -139 -1 -2 -12 4 -24 15 -18 16 -40 19 -167 22
-247 6 -252 1 -252 -228 0 -152 6 -181 39 -207 11 -9 70 -12 193 -13 l177 0
20 26 c12 15 21 41 21 59 l0 33 183 62 c345 119 267 65 645 443 l332 332 0
-648 0 -647 -930 0 -930 0 0 1140 0 1140 928 -2 927 -3 3 -90z m428 -66 c106
-107 118 -122 118 -154 0 -29 -9 -45 -54 -90 l-55 -55 -157 157 -158 158 43
43 c47 50 88 71 121 65 13 -3 76 -58 142 -124z m-2346 -96 l0 -168 -97 -2
c-58 -1 -102 2 -110 9 -10 8 -13 49 -13 163 0 83 3 155 7 158 3 4 53 7 110 7
l103 0 0 -167z m2262 -305 l-52 -53 -160 160 -160 160 52 52 53 53 160 -160
160 -160 -53 -52z m-304 119 l102 -102 -330 -330 c-329 -329 -357 -363 -313
-379 12 -5 100 76 348 325 304 303 334 330 352 318 56 -34 71 -16 -435 -522
l-477 -476 -153 -53 -152 -53 -56 57 -57 56 53 153 53 154 476 478 c262 262
478 477 481 477 3 0 51 -46 108 -103z m-1958 -377 l0 -171 -107 3 -108 3 -3
155 c-1 85 0 160 2 167 4 10 34 13 111 13 l105 0 0 -170z m0 -590 l0 -171
-107 3 -108 3 -3 155 c-1 85 0 160 2 167 4 10 34 13 111 13 l105 0 0 -170z
m698 -152 c21 -21 13 -91 -18 -177 -32 -88 -30 -111 11 -111 22 0 24 -11 7
-28 -13 -13 -281 -18 -312 -6 -14 5 -16 29 -16 163 0 87 3 161 7 164 12 13
308 8 321 -5z"/>
<path d="M1183 2366 l-28 -24 0 -177 0 -177 28 -24 c27 -23 33 -24 188 -24
166 0 209 9 223 45 3 9 6 93 6 186 0 167 0 170 -25 194 -24 25 -27 25 -194 25
-165 0 -171 -1 -198 -24z m365 -79 c3 -36 2 -38 -19 -32 -18 6 -35 -6 -98 -69
l-77 -76 -29 30 c-32 33 -75 41 -75 13 0 -19 87 -113 104 -113 6 0 52 42 103
92 l93 93 0 -100 c0 -55 -4 -106 -8 -113 -7 -9 -47 -12 -168 -10 l-159 3 -3
150 c-1 82 0 155 3 162 3 11 40 13 167 11 l163 -3 3 -38z"/>
<path d="M1200 1818 c-45 -24 -51 -50 -48 -226 l3 -164 28 -24 c27 -23 33 -24
198 -24 230 0 219 -11 219 219 0 165 -1 171 -24 198 l-24 28 -164 3 c-118 2
-170 -1 -188 -10z m338 -60 c7 -7 12 -29 12 -50 0 -36 -1 -37 -20 -26 -18 11
-28 5 -97 -64 l-78 -77 -37 34 c-39 36 -68 38 -68 5 0 -16 91 -110 107 -110 4
0 49 42 100 92 l93 93 0 -102 c0 -91 -2 -103 -19 -113 -28 -15 -294 -13 -309
2 -13 13 -18 309 -5 321 12 13 308 8 321 -5z"/>
<path d="M2032 1346 c-94 -94 -110 -126 -69 -134 22 -4 207 173 207 199 0 15
-19 29 -38 29 -3 0 -48 -42 -100 -94z"/>
</g>
</svg>
